<?xml version="1.0" encoding="utf-8" standalone="no"?>
<!DOCTYPE svg PUBLIC "-//W3C//DTD SVG 1.1//EN"
  "http://www.w3.org/Graphics/SVG/1.1/DTD/svg11.dtd">
<svg xmlns:xlink="http://www.w3.org/1999/xlink" width="1584pt" height="720pt" viewBox="0 0 1584 720" xmlns="http://www.w3.org/2000/svg" version="1.1">
 <metadata>
  <rdf:RDF xmlns:dc="http://purl.org/dc/elements/1.1/" xmlns:cc="http://creativecommons.org/ns#" xmlns:rdf="http://www.w3.org/1999/02/22-rdf-syntax-ns#">
   <cc:Work>
    <dc:type rdf:resource="http://purl.org/dc/dcmitype/StillImage"/>
    <dc:date>2026-03-04T21:44:38.320925</dc:date>
    <dc:format>image/svg+xml</dc:format>
    <dc:creator>
     <cc:Agent>
      <dc:title>Matplotlib v3.10.8, https://matplotlib.org/</dc:title>
     </cc:Agent>
    </dc:creator>
   </cc:Work>
  </rdf:RDF>
 </metadata>
 <defs>
  <style type="text/css">*{stroke-linejoin: round; stroke-linecap: butt}</style>
 </defs>
 <g id="figure_1">
  <g id="patch_1">
   <path d="M 0 720 
L 1584 720 
L 1584 0 
L 0 0 
z
" style="fill: #ffffff"/>
  </g>
  <g id="axes_1">
   <g id="matplotlib.axis_1">
    <g id="ytick_1">
     <g id="line2d_1">
      <defs>
       <path id="m97eb726991" d="M 0 0 
L 3.5 0 
" style="stroke: #000000; stroke-width: 0.8"/>
      </defs>
      <g>
       <use xlink:href="#m97eb726991" x="1425.6" y="633.905262" style="stroke: #000000; stroke-width: 0.8"/>
      </g>
     </g>
     <g id="text_1">
      <!-- $\mathdefault{-10^{3}}$ -->
      <g transform="translate(1432.6 637.70448) scale(0.1 -0.1)">
       <defs>
        <path id="DejaVuSans-2212" d="M 678 2272 
L 4684 2272 
L 4684 1741 
L 678 1741 
L 678 2272 
z
" transform="scale(0.015625)"/>
        <path id="DejaVuSans-31" d="M 794 531 
L 1825 531 
L 1825 4091 
L 703 3866 
L 703 4441 
L 1819 4666 
L 2450 4666 
L 2450 531 
L 3481 531 
L 3481 0 
L 794 0 
L 794 531 
z
" transform="scale(0.015625)"/>
        <path id="DejaVuSans-30" d="M 2034 4250 
Q 1547 4250 1301 3770 
Q 1056 3291 1056 2328 
Q 1056 1369 1301 889 
Q 1547 409 2034 409 
Q 2525 409 2770 889 
Q 3016 1369 3016 2328 
Q 3016 3291 2770 3770 
Q 2525 4250 2034 4250 
z
M 2034 4750 
Q 2819 4750 3233 4129 
Q 3647 3509 3647 2328 
Q 3647 1150 3233 529 
Q 2819 -91 2034 -91 
Q 1250 -91 836 529 
Q 422 1150 422 2328 
Q 422 3509 836 4129 
Q 1250 4750 2034 4750 
z
" transform="scale(0.015625)"/>
        <path id="DejaVuSans-33" d="M 2597 2516 
Q 3050 2419 3304 2112 
Q 3559 1806 3559 1356 
Q 3559 666 3084 287 
Q 2609 -91 1734 -91 
Q 1441 -91 1130 -33 
Q 819 25 488 141 
L 488 750 
Q 750 597 1062 519 
Q 1375 441 1716 441 
Q 2309 441 2620 675 
Q 2931 909 2931 1356 
Q 2931 1769 2642 2001 
Q 2353 2234 1838 2234 
L 1294 2234 
L 1294 2753 
L 1863 2753 
Q 2328 2753 2575 2939 
Q 2822 3125 2822 3475 
Q 2822 3834 2567 4026 
Q 2313 4219 1838 4219 
Q 1578 4219 1281 4162 
Q 984 4106 628 3988 
L 628 4550 
Q 988 4650 1302 4700 
Q 1616 4750 1894 4750 
Q 2613 4750 3031 4423 
Q 3450 4097 3450 3541 
Q 3450 3153 3228 2886 
Q 3006 2619 2597 2516 
z
" transform="scale(0.015625)"/>
       </defs>
       <use xlink:href="#DejaVuSans-2212" transform="translate(0 0.765625)"/>
       <use xlink:href="#DejaVuSans-31" transform="translate(83.789062 0.765625)"/>
       <use xlink:href="#DejaVuSans-30" transform="translate(147.412109 0.765625)"/>
       <use xlink:href="#DejaVuSans-33" transform="translate(211.992188 39.046875) scale(0.7)"/>
      </g>
     </g>
    </g>
    <g id="ytick_2">
     <g id="line2d_2">
      <g>
       <use xlink:href="#m97eb726991" x="1425.6" y="565.653437" style="stroke: #000000; stroke-width: 0.8"/>
      </g>
     </g>
     <g id="text_2">
      <!-- $\mathdefault{-10^{2}}$ -->
      <g transform="translate(1432.6 569.452656) scale(0.1 -0.1)">
       <defs>
        <path id="DejaVuSans-32" d="M 1228 531 
L 3431 531 
L 3431 0 
L 469 0 
L 469 531 
Q 828 903 1448 1529 
Q 2069 2156 2228 2338 
Q 2531 2678 2651 2914 
Q 2772 3150 2772 3378 
Q 2772 3750 2511 3984 
Q 2250 4219 1831 4219 
Q 1534 4219 1204 4116 
Q 875 4013 500 3803 
L 500 4441 
Q 881 4594 1212 4672 
Q 1544 4750 1819 4750 
Q 2544 4750 2975 4387 
Q 3406 4025 3406 3419 
Q 3406 3131 3298 2873 
Q 3191 2616 2906 2266 
Q 2828 2175 2409 1742 
Q 1991 1309 1228 531 
z
" transform="scale(0.015625)"/>
       </defs>
       <use xlink:href="#DejaVuSans-2212" transform="translate(0 0.765625)"/>
       <use xlink:href="#DejaVuSans-31" transform="translate(83.789062 0.765625)"/>
       <use xlink:href="#DejaVuSans-30" transform="translate(147.412109 0.765625)"/>
       <use xlink:href="#DejaVuSans-32" transform="translate(211.992188 39.046875) scale(0.7)"/>
      </g>
     </g>
    </g>
    <g id="ytick_3">
     <g id="line2d_3">
      <g>
       <use xlink:href="#m97eb726991" x="1425.6" y="497.401613" style="stroke: #000000; stroke-width: 0.8"/>
      </g>
     </g>
     <g id="text_3">
      <!-- $\mathdefault{-10^{1}}$ -->
      <g transform="translate(1432.6 501.200832) scale(0.1 -0.1)">
       <use xlink:href="#DejaVuSans-2212" transform="translate(0 0.684375)"/>
       <use xlink:href="#DejaVuSans-31" transform="translate(83.789062 0.684375)"/>
       <use xlink:href="#DejaVuSans-30" transform="translate(147.412109 0.684375)"/>
       <use xlink:href="#DejaVuSans-31" transform="translate(211.992188 38.965625) scale(0.7)"/>
      </g>
     </g>
    </g>
    <g id="ytick_4">
     <g id="line2d_4">
      <g>
       <use xlink:href="#m97eb726991" x="1425.6" y="411.777955" style="stroke: #000000; stroke-width: 0.8"/>
      </g>
     </g>
     <g id="text_4">
      <!-- $\mathdefault{-10^{0}}$ -->
      <g transform="translate(1432.6 415.577174) scale(0.1 -0.1)">
       <use xlink:href="#DejaVuSans-2212" transform="translate(0 0.765625)"/>
       <use xlink:href="#DejaVuSans-31" transform="translate(83.789062 0.765625)"/>
       <use xlink:href="#DejaVuSans-30" transform="translate(147.412109 0.765625)"/>
       <use xlink:href="#DejaVuSans-30" transform="translate(211.992188 39.046875) scale(0.7)"/>
      </g>
     </g>
    </g>
    <g id="ytick_5">
     <g id="line2d_5">
      <g>
       <use xlink:href="#m97eb726991" x="1425.6" y="373.860275" style="stroke: #000000; stroke-width: 0.8"/>
      </g>
     </g>
     <g id="text_5">
      <!-- $\mathdefault{0}$ -->
      <g transform="translate(1432.6 377.659494) scale(0.1 -0.1)">
       <use xlink:href="#DejaVuSans-30" transform="translate(0 0.78125)"/>
      </g>
     </g>
    </g>
    <g id="ytick_6">
     <g id="line2d_6">
      <g>
       <use xlink:href="#m97eb726991" x="1425.6" y="335.942595" style="stroke: #000000; stroke-width: 0.8"/>
      </g>
     </g>
     <g id="text_6">
      <!-- $\mathdefault{10^{0}}$ -->
      <g transform="translate(1432.6 339.741814) scale(0.1 -0.1)">
       <use xlink:href="#DejaVuSans-31" transform="translate(0 0.765625)"/>
       <use xlink:href="#DejaVuSans-30" transform="translate(63.623047 0.765625)"/>
       <use xlink:href="#DejaVuSans-30" transform="translate(128.203125 39.046875) scale(0.7)"/>
      </g>
     </g>
    </g>
    <g id="ytick_7">
     <g id="line2d_7">
      <g>
       <use xlink:href="#m97eb726991" x="1425.6" y="250.318937" style="stroke: #000000; stroke-width: 0.8"/>
      </g>
     </g>
     <g id="text_7">
      <!-- $\mathdefault{10^{1}}$ -->
      <g transform="translate(1432.6 254.118156) scale(0.1 -0.1)">
       <use xlink:href="#DejaVuSans-31" transform="translate(0 0.684375)"/>
       <use xlink:href="#DejaVuSans-30" transform="translate(63.623047 0.684375)"/>
       <use xlink:href="#DejaVuSans-31" transform="translate(128.203125 38.965625) scale(0.7)"/>
      </g>
     </g>
    </g>
    <g id="ytick_8">
     <g id="line2d_8">
      <g>
       <use xlink:href="#m97eb726991" x="1425.6" y="182.067113" style="stroke: #000000; stroke-width: 0.8"/>
      </g>
     </g>
     <g id="text_8">
      <!-- $\mathdefault{10^{2}}$ -->
      <g transform="translate(1432.6 185.866332) scale(0.1 -0.1)">
       <use xlink:href="#DejaVuSans-31" transform="translate(0 0.765625)"/>
       <use xlink:href="#DejaVuSans-30" transform="translate(63.623047 0.765625)"/>
       <use xlink:href="#DejaVuSans-32" transform="translate(128.203125 39.046875) scale(0.7)"/>
      </g>
     </g>
    </g>
    <g id="ytick_9">
     <g id="line2d_9">
      <g>
       <use xlink:href="#m97eb726991" x="1425.6" y="113.815289" style="stroke: #000000; stroke-width: 0.8"/>
      </g>
     </g>
     <g id="text_9">
      <!-- $\mathdefault{10^{3}}$ -->
      <g transform="translate(1432.6 117.614508) scale(0.1 -0.1)">
       <use xlink:href="#DejaVuSans-31" transform="translate(0 0.765625)"/>
       <use xlink:href="#DejaVuSans-30" transform="translate(63.623047 0.765625)"/>
       <use xlink:href="#DejaVuSans-33" transform="translate(128.203125 39.046875) scale(0.7)"/>
      </g>
     </g>
    </g>
    <g id="text_10">
     <!-- Acceleration [log(RPM/s)] -->
     <g transform="translate(1471.718125 439.412812) rotate(-90) scale(0.12 -0.12)">
      <defs>
       <path id="DejaVuSans-41" d="M 2188 4044 
L 1331 1722 
L 3047 1722 
L 2188 4044 
z
M 1831 4666 
L 2547 4666 
L 4325 0 
L 3669 0 
L 3244 1197 
L 1141 1197 
L 716 0 
L 50 0 
L 1831 4666 
z
" transform="scale(0.015625)"/>
       <path id="DejaVuSans-63" d="M 3122 3366 
L 3122 2828 
Q 2878 2963 2633 3030 
Q 2388 3097 2138 3097 
Q 1578 3097 1268 2742 
Q 959 2388 959 1747 
Q 959 1106 1268 751 
Q 1578 397 2138 397 
Q 2388 397 2633 464 
Q 2878 531 3122 666 
L 3122 134 
Q 2881 22 2623 -34 
Q 2366 -91 2075 -91 
Q 1284 -91 818 406 
Q 353 903 353 1747 
Q 353 2603 823 3093 
Q 1294 3584 2113 3584 
Q 2378 3584 2631 3529 
Q 2884 3475 3122 3366 
z
" transform="scale(0.015625)"/>
       <path id="DejaVuSans-65" d="M 3597 1894 
L 3597 1613 
L 953 1613 
Q 991 1019 1311 708 
Q 1631 397 2203 397 
Q 2534 397 2845 478 
Q 3156 559 3463 722 
L 3463 178 
Q 3153 47 2828 -22 
Q 2503 -91 2169 -91 
Q 1331 -91 842 396 
Q 353 884 353 1716 
Q 353 2575 817 3079 
Q 1281 3584 2069 3584 
Q 2775 3584 3186 3129 
Q 3597 2675 3597 1894 
z
M 3022 2063 
Q 3016 2534 2758 2815 
Q 2500 3097 2075 3097 
Q 1594 3097 1305 2825 
Q 1016 2553 972 2059 
L 3022 2063 
z
" transform="scale(0.015625)"/>
       <path id="DejaVuSans-6c" d="M 603 4863 
L 1178 4863 
L 1178 0 
L 603 0 
L 603 4863 
z
" transform="scale(0.015625)"/>
       <path id="DejaVuSans-72" d="M 2631 2963 
Q 2534 3019 2420 3045 
Q 2306 3072 2169 3072 
Q 1681 3072 1420 2755 
Q 1159 2438 1159 1844 
L 1159 0 
L 581 0 
L 581 3500 
L 1159 3500 
L 1159 2956 
Q 1341 3275 1631 3429 
Q 1922 3584 2338 3584 
Q 2397 3584 2469 3576 
Q 2541 3569 2628 3553 
L 2631 2963 
z
" transform="scale(0.015625)"/>
       <path id="DejaVuSans-61" d="M 2194 1759 
Q 1497 1759 1228 1600 
Q 959 1441 959 1056 
Q 959 750 1161 570 
Q 1363 391 1709 391 
Q 2188 391 2477 730 
Q 2766 1069 2766 1631 
L 2766 1759 
L 2194 1759 
z
M 3341 1997 
L 3341 0 
L 2766 0 
L 2766 531 
Q 2569 213 2275 61 
Q 1981 -91 1556 -91 
Q 1019 -91 701 211 
Q 384 513 384 1019 
Q 384 1609 779 1909 
Q 1175 2209 1959 2209 
L 2766 2209 
L 2766 2266 
Q 2766 2663 2505 2880 
Q 2244 3097 1772 3097 
Q 1472 3097 1187 3025 
Q 903 2953 641 2809 
L 641 3341 
Q 956 3463 1253 3523 
Q 1550 3584 1831 3584 
Q 2591 3584 2966 3190 
Q 3341 2797 3341 1997 
z
" transform="scale(0.015625)"/>
       <path id="DejaVuSans-74" d="M 1172 4494 
L 1172 3500 
L 2356 3500 
L 2356 3053 
L 1172 3053 
L 1172 1153 
Q 1172 725 1289 603 
Q 1406 481 1766 481 
L 2356 481 
L 2356 0 
L 1766 0 
Q 1100 0 847 248 
Q 594 497 594 1153 
L 594 3053 
L 172 3053 
L 172 3500 
L 594 3500 
L 594 4494 
L 1172 4494 
z
" transform="scale(0.015625)"/>
       <path id="DejaVuSans-69" d="M 603 3500 
L 1178 3500 
L 1178 0 
L 603 0 
L 603 3500 
z
M 603 4863 
L 1178 4863 
L 1178 4134 
L 603 4134 
L 603 4863 
z
" transform="scale(0.015625)"/>
       <path id="DejaVuSans-6f" d="M 1959 3097 
Q 1497 3097 1228 2736 
Q 959 2375 959 1747 
Q 959 1119 1226 758 
Q 1494 397 1959 397 
Q 2419 397 2687 759 
Q 2956 1122 2956 1747 
Q 2956 2369 2687 2733 
Q 2419 3097 1959 3097 
z
M 1959 3584 
Q 2709 3584 3137 3096 
Q 3566 2609 3566 1747 
Q 3566 888 3137 398 
Q 2709 -91 1959 -91 
Q 1206 -91 779 398 
Q 353 888 353 1747 
Q 353 2609 779 3096 
Q 1206 3584 1959 3584 
z
" transform="scale(0.015625)"/>
       <path id="DejaVuSans-6e" d="M 3513 2113 
L 3513 0 
L 2938 0 
L 2938 2094 
Q 2938 2591 2744 2837 
Q 2550 3084 2163 3084 
Q 1697 3084 1428 2787 
Q 1159 2491 1159 1978 
L 1159 0 
L 581 0 
L 581 3500 
L 1159 3500 
L 1159 2956 
Q 1366 3272 1645 3428 
Q 1925 3584 2291 3584 
Q 2894 3584 3203 3211 
Q 3513 2838 3513 2113 
z
" transform="scale(0.015625)"/>
       <path id="DejaVuSans-20" transform="scale(0.015625)"/>
       <path id="DejaVuSans-5b" d="M 550 4863 
L 1875 4863 
L 1875 4416 
L 1125 4416 
L 1125 -397 
L 1875 -397 
L 1875 -844 
L 550 -844 
L 550 4863 
z
" transform="scale(0.015625)"/>
       <path id="DejaVuSans-67" d="M 2906 1791 
Q 2906 2416 2648 2759 
Q 2391 3103 1925 3103 
Q 1463 3103 1205 2759 
Q 947 2416 947 1791 
Q 947 1169 1205 825 
Q 1463 481 1925 481 
Q 2391 481 2648 825 
Q 2906 1169 2906 1791 
z
M 3481 434 
Q 3481 -459 3084 -895 
Q 2688 -1331 1869 -1331 
Q 1566 -1331 1297 -1286 
Q 1028 -1241 775 -1147 
L 775 -588 
Q 1028 -725 1275 -790 
Q 1522 -856 1778 -856 
Q 2344 -856 2625 -561 
Q 2906 -266 2906 331 
L 2906 616 
Q 2728 306 2450 153 
Q 2172 0 1784 0 
Q 1141 0 747 490 
Q 353 981 353 1791 
Q 353 2603 747 3093 
Q 1141 3584 1784 3584 
Q 2172 3584 2450 3431 
Q 2728 3278 2906 2969 
L 2906 3500 
L 3481 3500 
L 3481 434 
z
" transform="scale(0.015625)"/>
       <path id="DejaVuSans-28" d="M 1984 4856 
Q 1566 4138 1362 3434 
Q 1159 2731 1159 2009 
Q 1159 1288 1364 580 
Q 1569 -128 1984 -844 
L 1484 -844 
Q 1016 -109 783 600 
Q 550 1309 550 2009 
Q 550 2706 781 3412 
Q 1013 4119 1484 4856 
L 1984 4856 
z
" transform="scale(0.015625)"/>
       <path id="DejaVuSans-52" d="M 2841 2188 
Q 3044 2119 3236 1894 
Q 3428 1669 3622 1275 
L 4263 0 
L 3584 0 
L 2988 1197 
Q 2756 1666 2539 1819 
Q 2322 1972 1947 1972 
L 1259 1972 
L 1259 0 
L 628 0 
L 628 4666 
L 2053 4666 
Q 2853 4666 3247 4331 
Q 3641 3997 3641 3322 
Q 3641 2881 3436 2590 
Q 3231 2300 2841 2188 
z
M 1259 4147 
L 1259 2491 
L 2053 2491 
Q 2509 2491 2742 2702 
Q 2975 2913 2975 3322 
Q 2975 3731 2742 3939 
Q 2509 4147 2053 4147 
L 1259 4147 
z
" transform="scale(0.015625)"/>
       <path id="DejaVuSans-50" d="M 1259 4147 
L 1259 2394 
L 2053 2394 
Q 2494 2394 2734 2622 
Q 2975 2850 2975 3272 
Q 2975 3691 2734 3919 
Q 2494 4147 2053 4147 
L 1259 4147 
z
M 628 4666 
L 2053 4666 
Q 2838 4666 3239 4311 
Q 3641 3956 3641 3272 
Q 3641 2581 3239 2228 
Q 2838 1875 2053 1875 
L 1259 1875 
L 1259 0 
L 628 0 
L 628 4666 
z
" transform="scale(0.015625)"/>
       <path id="DejaVuSans-4d" d="M 628 4666 
L 1569 4666 
L 2759 1491 
L 3956 4666 
L 4897 4666 
L 4897 0 
L 4281 0 
L 4281 4097 
L 3078 897 
L 2444 897 
L 1241 4097 
L 1241 0 
L 628 0 
L 628 4666 
z
" transform="scale(0.015625)"/>
       <path id="DejaVuSans-2f" d="M 1625 4666 
L 2156 4666 
L 531 -594 
L 0 -594 
L 1625 4666 
z
" transform="scale(0.015625)"/>
       <path id="DejaVuSans-73" d="M 2834 3397 
L 2834 2853 
Q 2591 2978 2328 3040 
Q 2066 3103 1784 3103 
Q 1356 3103 1142 2972 
Q 928 2841 928 2578 
Q 928 2378 1081 2264 
Q 1234 2150 1697 2047 
L 1894 2003 
Q 2506 1872 2764 1633 
Q 3022 1394 3022 966 
Q 3022 478 2636 193 
Q 2250 -91 1575 -91 
Q 1294 -91 989 -36 
Q 684 19 347 128 
L 347 722 
Q 666 556 975 473 
Q 1284 391 1588 391 
Q 1994 391 2212 530 
Q 2431 669 2431 922 
Q 2431 1156 2273 1281 
Q 2116 1406 1581 1522 
L 1381 1569 
Q 847 1681 609 1914 
Q 372 2147 372 2553 
Q 372 3047 722 3315 
Q 1072 3584 1716 3584 
Q 2034 3584 2315 3537 
Q 2597 3491 2834 3397 
z
" transform="scale(0.015625)"/>
       <path id="DejaVuSans-29" d="M 513 4856 
L 1013 4856 
Q 1481 4119 1714 3412 
Q 1947 2706 1947 2009 
Q 1947 1309 1714 600 
Q 1481 -109 1013 -844 
L 513 -844 
Q 928 -128 1133 580 
Q 1338 1288 1338 2009 
Q 1338 2731 1133 3434 
Q 928 4138 513 4856 
z
" transform="scale(0.015625)"/>
       <path id="DejaVuSans-5d" d="M 1947 4863 
L 1947 -844 
L 622 -844 
L 622 -397 
L 1369 -397 
L 1369 4416 
L 622 4416 
L 622 4863 
L 1947 4863 
z
" transform="scale(0.015625)"/>
      </defs>
      <use xlink:href="#DejaVuSans-41"/>
      <use xlink:href="#DejaVuSans-63" transform="translate(66.658203 0)"/>
      <use xlink:href="#DejaVuSans-63" transform="translate(121.638672 0)"/>
      <use xlink:href="#DejaVuSans-65" transform="translate(176.619141 0)"/>
      <use xlink:href="#DejaVuSans-6c" transform="translate(238.142578 0)"/>
      <use xlink:href="#DejaVuSans-65" transform="translate(265.925781 0)"/>
      <use xlink:href="#DejaVuSans-72" transform="translate(327.449219 0)"/>
      <use xlink:href="#DejaVuSans-61" transform="translate(368.5625 0)"/>
      <use xlink:href="#DejaVuSans-74" transform="translate(429.841797 0)"/>
      <use xlink:href="#DejaVuSans-69" transform="translate(469.050781 0)"/>
      <use xlink:href="#DejaVuSans-6f" transform="translate(496.833984 0)"/>
      <use xlink:href="#DejaVuSans-6e" transform="translate(558.015625 0)"/>
      <use xlink:href="#DejaVuSans-20" transform="translate(621.394531 0)"/>
      <use xlink:href="#DejaVuSans-5b" transform="translate(653.181641 0)"/>
      <use xlink:href="#DejaVuSans-6c" transform="translate(692.195312 0)"/>
      <use xlink:href="#DejaVuSans-6f" transform="translate(719.978516 0)"/>
      <use xlink:href="#DejaVuSans-67" transform="translate(781.160156 0)"/>
      <use xlink:href="#DejaVuSans-28" transform="translate(844.636719 0)"/>
      <use xlink:href="#DejaVuSans-52" transform="translate(883.650391 0)"/>
      <use xlink:href="#DejaVuSans-50" transform="translate(953.132812 0)"/>
      <use xlink:href="#DejaVuSans-4d" transform="translate(1013.435547 0)"/>
      <use xlink:href="#DejaVuSans-2f" transform="translate(1099.714844 0)"/>
      <use xlink:href="#DejaVuSans-73" transform="translate(1133.40625 0)"/>
      <use xlink:href="#DejaVuSans-29" transform="translate(1185.505859 0)"/>
      <use xlink:href="#DejaVuSans-5d" transform="translate(1224.519531 0)"/>
     </g>
    </g>
   </g>
   <g id="line2d_10">
    <path d="M 253.8 284.748957 
L 253.8 358.693203 
L 258.264454 111.683187 
L 261.480374 129.931623 
L 265.188141 591.004712 
L 268.895908 450.282613 
L 272.792847 555.447226 
L 276.651951 244.303489 
L 279.603031 130.185423 
L 282.308187 153.808337 
L 285.013344 508.801156 
L 287.756335 534.678874 
L 290.461491 212.055335 
L 293.261233 561.351245 
L 296.117727 550.313585 
L 299.068807 559.789144 
L 302.209059 576.581116 
L 305.727654 586.119144 
L 309.000325 173.114564 
L 311.364973 111.6 
L 313.578283 151.783713 
L 315.772675 238.979991 
L 318.004902 553.760597 
L 320.256046 509.675948 
L 322.450439 188.302201 
L 324.644832 439.078685 
L 326.858142 465.598045 
L 329.071451 506.689738 
L 331.303678 544.088389 
L 333.592657 562.556741 
L 335.91947 554.701811 
L 338.284117 554.221865 
L 340.705516 558.334264 
L 343.580927 612.966745 
L 346.872516 596.881982 
L 350.164105 269.873731 
L 353.361108 201.748309 
L 356.02843 133.532205 
L 358.544415 164.817714 
L 361.060399 468.407409 
L 363.614218 535.005758 
L 366.168037 498.478542 
L 368.684022 198.269854 
L 371.237841 539.570235 
L 373.810577 540.394737 
L 376.477899 565.442233 
L 379.485731 598.465781 
L 384.063688 615.6 
L 388.433556 200.992241 
L 393.181768 560.226637 
L 396.662528 136.085675 
L 399.519022 135.68562 
L 402.413351 533.6673 
L 405.326596 506.60294 
L 408.18309 208.451976 
L 411.058501 513.321352 
L 413.933912 257.34362 
L 416.752571 207.584083 
L 419.552314 224.80428 
L 422.314222 210.468158 
L 425.07613 373.860275 
L 427.875872 531.655873 
L 430.7702 562.596202 
L 433.740197 549.157393 
L 437.031786 589.42455 
L 440.720636 584.154768 
L 444.712161 568.972932 
L 448.798271 531.393392 
L 453.016802 536.358142 
L 456.421894 144.74606 
L 459.713483 194.59993 
L 463.023989 438.699508 
L 466.391247 535.795364 
L 469.815256 529.24594 
L 473.258182 509.10229 
L 476.795694 541.217209 
L 480.31429 252.984431 
L 483.454541 156.82442 
L 486.519124 202.61296 
L 489.602624 500.334331 
L 492.667207 228.341001 
L 495.466949 157.940566 
L 498.285609 504.602876 
L 501.236688 571.654364 
L 504.528277 589.117231 
L 507.933369 554.365365 
L 511.338462 282.91299 
L 514.875974 555.329884 
L 518.508072 540.436407 
L 522.291508 550.263809 
L 526.169529 538.127957 
L 530.009716 235.029518 
L 533.320222 152.59393 
L 536.706397 544.265791 
L 540.130406 510.334673 
L 543.611167 525.195182 
L 547.073011 283.361431 
L 550.62944 543.817183 
L 554.034532 188.681399 
L 556.853192 135.829168 
L 559.652934 239.945862 
L 562.471594 508.962141 
L 565.30917 529.296514 
L 568.052161 184.852843 
L 570.795152 251.344276 
L 573.613812 557.716993 
L 576.470305 531.683858 
L 579.383551 546.241633 
L 582.296796 266.261687 
L 585.247876 533.649853 
L 588.23679 527.083521 
L 591.225704 504.392901 
L 594.27137 540.108412 
L 597.335953 488.516469 
L 600.457287 536.643462 
L 603.597539 510.696506 
L 606.73779 496.314842 
L 609.953711 541.399162 
L 613.188548 507.459687 
L 616.442303 506.010312 
L 619.752809 530.251167 
L 623.063315 470.241482 
L 626.468407 545.107591 
L 629.911333 513.182435 
L 633.467763 551.084299 
L 637.118778 538.795584 
L 640.826545 519.280533 
L 644.704567 555.998343 
L 648.620422 485.795165 
L 652.536278 483.61199 
L 656.489968 503.873277 
L 660.462576 480.791584 
L 664.586521 541.653367 
L 668.540211 199.519584 
L 672.56957 526.57832 
L 676.617846 493.880704 
L 680.552619 205.927632 
L 684.525226 517.22739 
L 688.327579 192.576005 
L 692.262352 546.767574 
L 696.083622 206.361726 
L 699.923809 484.173043 
L 703.896417 543.064664 
L 707.812272 228.653318 
L 711.747045 500.387981 
L 715.341309 170.256783 
L 718.95449 507.67006 
L 722.681174 540.387786 
L 726.351107 226.045651 
L 730.039957 493.341755 
L 733.766641 504.463058 
L 737.512242 506.60294 
L 741.314595 521.293444 
L 744.927776 187.316462 
L 748.578791 515.037735 
L 752.210889 247.655934 
L 755.82407 250.467516 
L 759.418334 263.92036 
L 762.974764 227.205071 
L 766.606862 536.166391 
L 770.201126 230.569183 
L 773.795389 413.673839 
L 777.465322 537.879343 
L 781.078503 218.434145 
L 784.672767 263.92036 
L 788.304865 510.620697 
L 791.95588 499.901602 
L 795.682564 528.372712 
L 799.352497 230.387055 
L 803.098098 527.687148 
L 806.862617 497.549451 
L 810.627135 267.878417 
L 814.467322 529.528049 
L 818.231841 221.848412 
L 822.128779 543.630836 
L 826.044635 478.638813 
L 829.960491 447.041398 
L 834.046601 549.675138 
L 838.189463 506.733041 
L 842.521497 547.710927 
L 846.891365 500.919203 
L 851.223399 245.43799 
L 855.858108 555.509897 
L 860.39823 225.208085 
L 865.222111 550.511856 
L 870.008157 262.101299 
L 874.321273 178.287441 
L 878.047957 159.555966 
L 881.509801 175.942977 
L 884.385212 137.657913 
L 887.14712 180.680247 
L 889.909028 282.122506 
L 892.614184 196.457499 
L 895.092335 150.189398 
L 897.419148 154.762684 
L 899.651375 170.217009 
L 901.864685 198.152321 
L 904.096912 540.788258 
L 906.348056 534.779838 
L 908.637034 550.674437 
L 910.94493 536.737962 
L 913.271743 541.799547 
L 915.63639 541.852526 
L 918.019955 530.123677 
L 920.441353 550.590794 
L 922.881669 530.192393 
L 927.856887 555.367651 
L 930.448541 560.464181 
L 933.13478 572.015292 
L 935.953439 570.924015 
L 938.942353 576.39396 
L 942.006936 553.359429 
L 945.071519 420.499022 
L 948.230688 552.178377 
L 951.408774 495.943546 
L 954.624694 525.587178 
L 957.878449 527.825535 
L 961.132203 395.85253 
L 964.480544 549.317269 
L 967.866719 507.311533 
L 971.328562 538.000143 
L 974.847157 530.074496 
L 978.38467 494.573523 
L 982.016768 542.860723 
L 985.667783 477.904098 
L 989.394467 531.383974 
L 993.19682 530.309824 
L 996.999173 373.860275 
L 1000.952863 547.689199 
L 1004.906553 468.954169 
L 1009.049415 548.55138 
L 1013.267946 524.155856 
L 1017.467559 266.160349 
L 1021.913096 553.125144 
L 1026.339716 261.576659 
L 1030.955507 541.766388 
L 1035.722636 528.930441 
L 1040.05467 180.429561 
L 1044.197532 199.901226 
L 1047.943133 170.756487 
L 1051.669817 256.491903 
L 1055.320833 218.222599 
L 1058.934014 228.411694 
L 1062.622863 538.868845 
L 1066.292796 240.515298 
L 1070.000563 510.026508 
L 1073.765081 522.878647 
L 1077.5296 392.819115 
L 1081.218449 217.498756 
L 1084.774879 198.223807 
L 1088.444811 544.797706 
L 1092.133661 474.512816 
L 1095.860345 513.58008 
L 1099.719449 546.247338 
L 1103.616388 503.149692 
L 1107.513327 410.640425 
L 1111.240011 195.0788 
L 1115.080198 538.78091 
L 1118.958219 514.090857 
L 1122.741655 207.781037 
L 1126.638594 543.630836 
L 1130.55445 481.255142 
L 1134.583809 534.712567 
L 1138.651002 510.979076 
L 1142.529023 194.890891 
L 1146.615134 552.159691 
L 1150.701244 477.384567 
L 1154.900858 529.24594 
L 1159.024803 232.325295 
L 1163.073079 221.803071 
L 1167.234858 534.913924 
L 1171.358803 238.93958 
L 1175.558416 521.465049 
L 1179.871533 533.474822 
L 1184.127898 239.883261 
L 1188.497766 527.612364 
L 1192.810882 236.778995 
L 1197.369922 549.766467 
L 1202.023548 519.590621 
L 1206.525837 214.386501 
L 1211.236214 541.971382 
L 1216.02226 511.719687 
L 1220.638051 210.03095 
L 1225.083588 212.565131 
L 1229.623711 519.744458 
L 1234.504343 553.287538 
L 1239.101217 198.838507 
L 1243.887263 535.345562 
L 1248.616558 251.528958 
L 1253.15668 207.138758 
L 1257.923809 544.393595 
L 1262.823358 523.277528 
L 1267.968831 539.61308 
L 1273.757487 559.065077 
L 1279.375889 229.966389 
L 1285.164546 516.348949 
L 1289.401993 147.663902 
L 1293.525938 210.693097 
L 1297.725552 522.626593 
L 1302.114337 546.110109 
L 1306.862549 557.557724 
L 1311.837767 541.135982 
L 1317.191328 547.808503 
L 1322.998902 547.60758 
L 1328.5038 211.998325 
L 1334.841055 559.476821 
L 1340.478374 191.06046 
L 1346.853463 554.58578 
L 1352.377279 183.631232 
L 1357.825426 249.099433 
L 1363.651917 542.070066 
L 1369.8 531.299082 
L 1369.8 531.299082 
" clip-path="url(#p605b25a192)" style="fill: none; stroke: #ffa500; stroke-width: 1.2; stroke-linecap: square"/>
   </g>
   <g id="LineCollection_1">
    <path d="M 253.8 373.860275 
L 1369.8 373.860275 
" clip-path="url(#p605b25a192)" style="fill: none; stroke-dasharray: 5.55,2.4; stroke-dashoffset: 0; stroke: #ffa500; stroke-width: 1.5"/>
   </g>
   <g id="patch_2">
    <path d="M 198 640.8 
L 198 86.4 
" style="fill: none; stroke: #000000; stroke-width: 0.8; stroke-linejoin: miter; stroke-linecap: square"/>
   </g>
   <g id="patch_3">
    <path d="M 1425.6 640.8 
L 1425.6 86.4 
" style="fill: none; stroke: #000000; stroke-width: 0.8; stroke-linejoin: miter; stroke-linecap: square"/>
   </g>
   <g id="patch_4">
    <path d="M 198 640.8 
L 1425.6 640.8 
" style="fill: none; stroke: #000000; stroke-width: 0.8; stroke-linejoin: miter; stroke-linecap: square"/>
   </g>
   <g id="patch_5">
    <path d="M 198 86.4 
L 1425.6 86.4 
" style="fill: none; stroke: #000000; stroke-width: 0.8; stroke-linejoin: miter; stroke-linecap: square"/>
   </g>
  </g>
  <g id="axes_2">
   <g id="matplotlib.axis_2">
    <g id="xtick_1">
     <g id="line2d_11">
      <path d="M 253.8 640.8 
L 253.8 86.4 
" clip-path="url(#p605b25a192)" style="fill: none; stroke: #b0b0b0; stroke-width: 0.8; stroke-linecap: square"/>
     </g>
     <g id="line2d_12">
      <defs>
       <path id="mdce589cc9b" d="M 0 0 
L 0 3.5 
" style="stroke: #000000; stroke-width: 0.8"/>
      </defs>
      <g>
       <use xlink:href="#mdce589cc9b" x="253.8" y="640.8" style="stroke: #000000; stroke-width: 0.8"/>
      </g>
     </g>
     <g id="text_11">
      <!-- 0 -->
      <g transform="translate(250.61875 655.398438) scale(0.1 -0.1)">
       <use xlink:href="#DejaVuSans-30"/>
      </g>
     </g>
    </g>
    <g id="xtick_2">
     <g id="line2d_13">
      <path d="M 442.97178 640.8 
L 442.97178 86.4 
" clip-path="url(#p605b25a192)" style="fill: none; stroke: #b0b0b0; stroke-width: 0.8; stroke-linecap: square"/>
     </g>
     <g id="line2d_14">
      <g>
       <use xlink:href="#mdce589cc9b" x="442.97178" y="640.8" style="stroke: #000000; stroke-width: 0.8"/>
      </g>
     </g>
     <g id="text_12">
      <!-- 10 -->
      <g transform="translate(436.60928 655.398438) scale(0.1 -0.1)">
       <use xlink:href="#DejaVuSans-31"/>
       <use xlink:href="#DejaVuSans-30" transform="translate(63.623047 0)"/>
      </g>
     </g>
    </g>
    <g id="xtick_3">
     <g id="line2d_15">
      <path d="M 632.14356 640.8 
L 632.14356 86.4 
" clip-path="url(#p605b25a192)" style="fill: none; stroke: #b0b0b0; stroke-width: 0.8; stroke-linecap: square"/>
     </g>
     <g id="line2d_16">
      <g>
       <use xlink:href="#mdce589cc9b" x="632.14356" y="640.8" style="stroke: #000000; stroke-width: 0.8"/>
      </g>
     </g>
     <g id="text_13">
      <!-- 20 -->
      <g transform="translate(625.78106 655.398438) scale(0.1 -0.1)">
       <use xlink:href="#DejaVuSans-32"/>
       <use xlink:href="#DejaVuSans-30" transform="translate(63.623047 0)"/>
      </g>
     </g>
    </g>
    <g id="xtick_4">
     <g id="line2d_17">
      <path d="M 821.315341 640.8 
L 821.315341 86.4 
" clip-path="url(#p605b25a192)" style="fill: none; stroke: #b0b0b0; stroke-width: 0.8; stroke-linecap: square"/>
     </g>
     <g id="line2d_18">
      <g>
       <use xlink:href="#mdce589cc9b" x="821.315341" y="640.8" style="stroke: #000000; stroke-width: 0.8"/>
      </g>
     </g>
     <g id="text_14">
      <!-- 30 -->
      <g transform="translate(814.952841 655.398438) scale(0.1 -0.1)">
       <use xlink:href="#DejaVuSans-33"/>
       <use xlink:href="#DejaVuSans-30" transform="translate(63.623047 0)"/>
      </g>
     </g>
    </g>
    <g id="xtick_5">
     <g id="line2d_19">
      <path d="M 1010.487121 640.8 
L 1010.487121 86.4 
" clip-path="url(#p605b25a192)" style="fill: none; stroke: #b0b0b0; stroke-width: 0.8; stroke-linecap: square"/>
     </g>
     <g id="line2d_20">
      <g>
       <use xlink:href="#mdce589cc9b" x="1010.487121" y="640.8" style="stroke: #000000; stroke-width: 0.8"/>
      </g>
     </g>
     <g id="text_15">
      <!-- 40 -->
      <g transform="translate(1004.124621 655.398438) scale(0.1 -0.1)">
       <defs>
        <path id="DejaVuSans-34" d="M 2419 4116 
L 825 1625 
L 2419 1625 
L 2419 4116 
z
M 2253 4666 
L 3047 4666 
L 3047 1625 
L 3713 1625 
L 3713 1100 
L 3047 1100 
L 3047 0 
L 2419 0 
L 2419 1100 
L 313 1100 
L 313 1709 
L 2253 4666 
z
" transform="scale(0.015625)"/>
       </defs>
       <use xlink:href="#DejaVuSans-34"/>
       <use xlink:href="#DejaVuSans-30" transform="translate(63.623047 0)"/>
      </g>
     </g>
    </g>
    <g id="xtick_6">
     <g id="line2d_21">
      <path d="M 1199.658901 640.8 
L 1199.658901 86.4 
" clip-path="url(#p605b25a192)" style="fill: none; stroke: #b0b0b0; stroke-width: 0.8; stroke-linecap: square"/>
     </g>
     <g id="line2d_22">
      <g>
       <use xlink:href="#mdce589cc9b" x="1199.658901" y="640.8" style="stroke: #000000; stroke-width: 0.8"/>
      </g>
     </g>
     <g id="text_16">
      <!-- 50 -->
      <g transform="translate(1193.296401 655.398438) scale(0.1 -0.1)">
       <defs>
        <path id="DejaVuSans-35" d="M 691 4666 
L 3169 4666 
L 3169 4134 
L 1269 4134 
L 1269 2991 
Q 1406 3038 1543 3061 
Q 1681 3084 1819 3084 
Q 2600 3084 3056 2656 
Q 3513 2228 3513 1497 
Q 3513 744 3044 326 
Q 2575 -91 1722 -91 
Q 1428 -91 1123 -41 
Q 819 9 494 109 
L 494 744 
Q 775 591 1075 516 
Q 1375 441 1709 441 
Q 2250 441 2565 725 
Q 2881 1009 2881 1497 
Q 2881 1984 2565 2268 
Q 2250 2553 1709 2553 
Q 1456 2553 1204 2497 
Q 953 2441 691 2322 
L 691 4666 
z
" transform="scale(0.015625)"/>
       </defs>
       <use xlink:href="#DejaVuSans-35"/>
       <use xlink:href="#DejaVuSans-30" transform="translate(63.623047 0)"/>
      </g>
     </g>
    </g>
    <g id="xtick_7">
     <g id="line2d_23">
      <path d="M 1388.830681 640.8 
L 1388.830681 86.4 
" clip-path="url(#p605b25a192)" style="fill: none; stroke: #b0b0b0; stroke-width: 0.8; stroke-linecap: square"/>
     </g>
     <g id="line2d_24">
      <g>
       <use xlink:href="#mdce589cc9b" x="1388.830681" y="640.8" style="stroke: #000000; stroke-width: 0.8"/>
      </g>
     </g>
     <g id="text_17">
      <!-- 60 -->
      <g transform="translate(1382.468181 655.398438) scale(0.1 -0.1)">
       <defs>
        <path id="DejaVuSans-36" d="M 2113 2584 
Q 1688 2584 1439 2293 
Q 1191 2003 1191 1497 
Q 1191 994 1439 701 
Q 1688 409 2113 409 
Q 2538 409 2786 701 
Q 3034 994 3034 1497 
Q 3034 2003 2786 2293 
Q 2538 2584 2113 2584 
z
M 3366 4563 
L 3366 3988 
Q 3128 4100 2886 4159 
Q 2644 4219 2406 4219 
Q 1781 4219 1451 3797 
Q 1122 3375 1075 2522 
Q 1259 2794 1537 2939 
Q 1816 3084 2150 3084 
Q 2853 3084 3261 2657 
Q 3669 2231 3669 1497 
Q 3669 778 3244 343 
Q 2819 -91 2113 -91 
Q 1303 -91 875 529 
Q 447 1150 447 2328 
Q 447 3434 972 4092 
Q 1497 4750 2381 4750 
Q 2619 4750 2861 4703 
Q 3103 4656 3366 4563 
z
" transform="scale(0.015625)"/>
       </defs>
       <use xlink:href="#DejaVuSans-36"/>
       <use xlink:href="#DejaVuSans-30" transform="translate(63.623047 0)"/>
      </g>
     </g>
    </g>
    <g id="text_18">
     <!-- Time [second] -->
     <g transform="translate(769.131563 670.59625) scale(0.12 -0.12)">
      <defs>
       <path id="DejaVuSans-54" d="M -19 4666 
L 3928 4666 
L 3928 4134 
L 2272 4134 
L 2272 0 
L 1638 0 
L 1638 4134 
L -19 4134 
L -19 4666 
z
" transform="scale(0.015625)"/>
       <path id="DejaVuSans-6d" d="M 3328 2828 
Q 3544 3216 3844 3400 
Q 4144 3584 4550 3584 
Q 5097 3584 5394 3201 
Q 5691 2819 5691 2113 
L 5691 0 
L 5113 0 
L 5113 2094 
Q 5113 2597 4934 2840 
Q 4756 3084 4391 3084 
Q 3944 3084 3684 2787 
Q 3425 2491 3425 1978 
L 3425 0 
L 2847 0 
L 2847 2094 
Q 2847 2600 2669 2842 
Q 2491 3084 2119 3084 
Q 1678 3084 1418 2786 
Q 1159 2488 1159 1978 
L 1159 0 
L 581 0 
L 581 3500 
L 1159 3500 
L 1159 2956 
Q 1356 3278 1631 3431 
Q 1906 3584 2284 3584 
Q 2666 3584 2933 3390 
Q 3200 3197 3328 2828 
z
" transform="scale(0.015625)"/>
       <path id="DejaVuSans-64" d="M 2906 2969 
L 2906 4863 
L 3481 4863 
L 3481 0 
L 2906 0 
L 2906 525 
Q 2725 213 2448 61 
Q 2172 -91 1784 -91 
Q 1150 -91 751 415 
Q 353 922 353 1747 
Q 353 2572 751 3078 
Q 1150 3584 1784 3584 
Q 2172 3584 2448 3432 
Q 2725 3281 2906 2969 
z
M 947 1747 
Q 947 1113 1208 752 
Q 1469 391 1925 391 
Q 2381 391 2643 752 
Q 2906 1113 2906 1747 
Q 2906 2381 2643 2742 
Q 2381 3103 1925 3103 
Q 1469 3103 1208 2742 
Q 947 2381 947 1747 
z
" transform="scale(0.015625)"/>
      </defs>
      <use xlink:href="#DejaVuSans-54"/>
      <use xlink:href="#DejaVuSans-69" transform="translate(57.958984 0)"/>
      <use xlink:href="#DejaVuSans-6d" transform="translate(85.742188 0)"/>
      <use xlink:href="#DejaVuSans-65" transform="translate(183.154297 0)"/>
      <use xlink:href="#DejaVuSans-20" transform="translate(244.677734 0)"/>
      <use xlink:href="#DejaVuSans-5b" transform="translate(276.464844 0)"/>
      <use xlink:href="#DejaVuSans-73" transform="translate(315.478516 0)"/>
      <use xlink:href="#DejaVuSans-65" transform="translate(367.578125 0)"/>
      <use xlink:href="#DejaVuSans-63" transform="translate(429.101562 0)"/>
      <use xlink:href="#DejaVuSans-6f" transform="translate(484.082031 0)"/>
      <use xlink:href="#DejaVuSans-6e" transform="translate(545.263672 0)"/>
      <use xlink:href="#DejaVuSans-64" transform="translate(608.642578 0)"/>
      <use xlink:href="#DejaVuSans-5d" transform="translate(672.119141 0)"/>
     </g>
    </g>
   </g>
   <g id="matplotlib.axis_3">
    <g id="ytick_10">
     <g id="line2d_25">
      <path d="M 198 615.6 
L 1425.6 615.6 
" clip-path="url(#p605b25a192)" style="fill: none; stroke: #b0b0b0; stroke-width: 0.8; stroke-linecap: square"/>
     </g>
     <g id="line2d_26">
      <defs>
       <path id="mfbfea7954e" d="M 0 0 
L -3.5 0 
" style="stroke: #000000; stroke-width: 0.8"/>
      </defs>
      <g>
       <use xlink:href="#mfbfea7954e" x="198" y="615.6" style="stroke: #000000; stroke-width: 0.8"/>
      </g>
     </g>
     <g id="text_19">
      <!-- 0 -->
      <g transform="translate(184.6375 619.399219) scale(0.1 -0.1)">
       <use xlink:href="#DejaVuSans-30"/>
      </g>
     </g>
    </g>
    <g id="ytick_11">
     <g id="line2d_27">
      <path d="M 198 517.849806 
L 1425.6 517.849806 
" clip-path="url(#p605b25a192)" style="fill: none; stroke: #b0b0b0; stroke-width: 0.8; stroke-linecap: square"/>
     </g>
     <g id="line2d_28">
      <g>
       <use xlink:href="#mfbfea7954e" x="198" y="517.849806" style="stroke: #000000; stroke-width: 0.8"/>
      </g>
     </g>
     <g id="text_20">
      <!-- 100 -->
      <g transform="translate(171.9125 521.649025) scale(0.1 -0.1)">
       <use xlink:href="#DejaVuSans-31"/>
       <use xlink:href="#DejaVuSans-30" transform="translate(63.623047 0)"/>
       <use xlink:href="#DejaVuSans-30" transform="translate(127.246094 0)"/>
      </g>
     </g>
    </g>
    <g id="ytick_12">
     <g id="line2d_29">
      <path d="M 198 420.099612 
L 1425.6 420.099612 
" clip-path="url(#p605b25a192)" style="fill: none; stroke: #b0b0b0; stroke-width: 0.8; stroke-linecap: square"/>
     </g>
     <g id="line2d_30">
      <g>
       <use xlink:href="#mfbfea7954e" x="198" y="420.099612" style="stroke: #000000; stroke-width: 0.8"/>
      </g>
     </g>
     <g id="text_21">
      <!-- 200 -->
      <g transform="translate(171.9125 423.898831) scale(0.1 -0.1)">
       <use xlink:href="#DejaVuSans-32"/>
       <use xlink:href="#DejaVuSans-30" transform="translate(63.623047 0)"/>
       <use xlink:href="#DejaVuSans-30" transform="translate(127.246094 0)"/>
      </g>
     </g>
    </g>
    <g id="ytick_13">
     <g id="line2d_31">
      <path d="M 198 322.349418 
L 1425.6 322.349418 
" clip-path="url(#p605b25a192)" style="fill: none; stroke: #b0b0b0; stroke-width: 0.8; stroke-linecap: square"/>
     </g>
     <g id="line2d_32">
      <g>
       <use xlink:href="#mfbfea7954e" x="198" y="322.349418" style="stroke: #000000; stroke-width: 0.8"/>
      </g>
     </g>
     <g id="text_22">
      <!-- 300 -->
      <g transform="translate(171.9125 326.148637) scale(0.1 -0.1)">
       <use xlink:href="#DejaVuSans-33"/>
       <use xlink:href="#DejaVuSans-30" transform="translate(63.623047 0)"/>
       <use xlink:href="#DejaVuSans-30" transform="translate(127.246094 0)"/>
      </g>
     </g>
    </g>
    <g id="ytick_14">
     <g id="line2d_33">
      <path d="M 198 224.599224 
L 1425.6 224.599224 
" clip-path="url(#p605b25a192)" style="fill: none; stroke: #b0b0b0; stroke-width: 0.8; stroke-linecap: square"/>
     </g>
     <g id="line2d_34">
      <g>
       <use xlink:href="#mfbfea7954e" x="198" y="224.599224" style="stroke: #000000; stroke-width: 0.8"/>
      </g>
     </g>
     <g id="text_23">
      <!-- 400 -->
      <g transform="translate(171.9125 228.398443) scale(0.1 -0.1)">
       <use xlink:href="#DejaVuSans-34"/>
       <use xlink:href="#DejaVuSans-30" transform="translate(63.623047 0)"/>
       <use xlink:href="#DejaVuSans-30" transform="translate(127.246094 0)"/>
      </g>
     </g>
    </g>
    <g id="ytick_15">
     <g id="line2d_35">
      <path d="M 198 126.84903 
L 1425.6 126.84903 
" clip-path="url(#p605b25a192)" style="fill: none; stroke: #b0b0b0; stroke-width: 0.8; stroke-linecap: square"/>
     </g>
     <g id="line2d_36">
      <g>
       <use xlink:href="#mfbfea7954e" x="198" y="126.84903" style="stroke: #000000; stroke-width: 0.8"/>
      </g>
     </g>
     <g id="text_24">
      <!-- 500 -->
      <g transform="translate(171.9125 130.648249) scale(0.1 -0.1)">
       <use xlink:href="#DejaVuSans-35"/>
       <use xlink:href="#DejaVuSans-30" transform="translate(63.623047 0)"/>
       <use xlink:href="#DejaVuSans-30" transform="translate(127.246094 0)"/>
      </g>
     </g>
    </g>
    <g id="text_25">
     <!-- Rotational speed [RPM] -->
     <g transform="translate(165.416875 433.622812) rotate(-90) scale(0.12 -0.12)">
      <defs>
       <path id="DejaVuSans-70" d="M 1159 525 
L 1159 -1331 
L 581 -1331 
L 581 3500 
L 1159 3500 
L 1159 2969 
Q 1341 3281 1617 3432 
Q 1894 3584 2278 3584 
Q 2916 3584 3314 3078 
Q 3713 2572 3713 1747 
Q 3713 922 3314 415 
Q 2916 -91 2278 -91 
Q 1894 -91 1617 61 
Q 1341 213 1159 525 
z
M 3116 1747 
Q 3116 2381 2855 2742 
Q 2594 3103 2138 3103 
Q 1681 3103 1420 2742 
Q 1159 2381 1159 1747 
Q 1159 1113 1420 752 
Q 1681 391 2138 391 
Q 2594 391 2855 752 
Q 3116 1113 3116 1747 
z
" transform="scale(0.015625)"/>
      </defs>
      <use xlink:href="#DejaVuSans-52"/>
      <use xlink:href="#DejaVuSans-6f" transform="translate(64.982422 0)"/>
      <use xlink:href="#DejaVuSans-74" transform="translate(126.164062 0)"/>
      <use xlink:href="#DejaVuSans-61" transform="translate(165.373047 0)"/>
      <use xlink:href="#DejaVuSans-74" transform="translate(226.652344 0)"/>
      <use xlink:href="#DejaVuSans-69" transform="translate(265.861328 0)"/>
      <use xlink:href="#DejaVuSans-6f" transform="translate(293.644531 0)"/>
      <use xlink:href="#DejaVuSans-6e" transform="translate(354.826172 0)"/>
      <use xlink:href="#DejaVuSans-61" transform="translate(418.205078 0)"/>
      <use xlink:href="#DejaVuSans-6c" transform="translate(479.484375 0)"/>
      <use xlink:href="#DejaVuSans-20" transform="translate(507.267578 0)"/>
      <use xlink:href="#DejaVuSans-73" transform="translate(539.054688 0)"/>
      <use xlink:href="#DejaVuSans-70" transform="translate(591.154297 0)"/>
      <use xlink:href="#DejaVuSans-65" transform="translate(654.630859 0)"/>
      <use xlink:href="#DejaVuSans-65" transform="translate(716.154297 0)"/>
      <use xlink:href="#DejaVuSans-64" transform="translate(777.677734 0)"/>
      <use xlink:href="#DejaVuSans-20" transform="translate(841.154297 0)"/>
      <use xlink:href="#DejaVuSans-5b" transform="translate(872.941406 0)"/>
      <use xlink:href="#DejaVuSans-52" transform="translate(911.955078 0)"/>
      <use xlink:href="#DejaVuSans-50" transform="translate(981.4375 0)"/>
      <use xlink:href="#DejaVuSans-4d" transform="translate(1041.740234 0)"/>
      <use xlink:href="#DejaVuSans-5d" transform="translate(1128.019531 0)"/>
     </g>
    </g>
   </g>
   <g id="line2d_37">
    <path d="M 253.8 615.6 
L 253.8 615.208999 
L 258.264454 367.314507 
L 261.480374 270.835066 
L 265.188141 315.897905 
L 268.895908 316.288906 
L 272.792847 330.560434 
L 276.651951 328.11668 
L 279.603031 240.337005 
L 282.308187 204.071683 
L 285.013344 206.124438 
L 287.756335 211.109697 
L 290.461491 206.026687 
L 293.261233 218.538712 
L 296.117727 227.33623 
L 299.068807 239.848254 
L 302.209059 263.308301 
L 305.727654 299.573623 
L 309.000325 276.700078 
L 311.364973 145.030566 
L 313.578283 113.261753 
L 315.772675 111.6 
L 318.004902 119.322265 
L 320.256046 121.081769 
L 322.450439 111.893251 
L 324.644832 112.088751 
L 326.858142 112.479752 
L 329.071451 114.043755 
L 331.303678 119.615516 
L 333.592657 130.270287 
L 338.284117 146.88782 
L 340.705516 156.662839 
L 343.580927 229.975485 
L 346.872516 278.752832 
L 350.164105 277.87308 
L 353.361108 269.368813 
L 356.02843 198.499922 
L 358.544415 175.235376 
L 361.060399 175.724127 
L 363.614218 180.416137 
L 366.168037 181.784639 
L 368.684022 174.257874 
L 373.810577 185.401396 
L 376.477899 199.086424 
L 379.485731 246.104267 
L 384.063688 373.66827 
L 388.433556 361.742746 
L 393.181768 382.172537 
L 399.519022 226.749728 
L 402.413351 231.832739 
L 405.326596 233.885493 
L 408.18309 227.824981 
L 411.058501 230.366486 
L 413.933912 229.193483 
L 416.752571 223.035221 
L 419.552314 219.613964 
L 422.314222 214.139953 
L 425.07613 214.139953 
L 427.875872 218.734213 
L 430.7702 232.223739 
L 433.740197 241.021257 
L 437.031786 278.948332 
L 440.720636 314.529403 
L 444.712161 337.598448 
L 448.798271 344.245462 
L 453.016802 352.358728 
L 456.421894 290.385105 
L 459.713483 279.241583 
L 463.023989 279.534833 
L 466.391247 285.888596 
L 469.815256 291.069356 
L 473.258182 293.708611 
L 476.795694 301.724127 
L 480.31429 300.062374 
L 483.454541 262.037548 
L 486.519124 254.119783 
L 489.602624 255.879286 
L 492.667207 252.55578 
L 495.466949 219.907215 
L 498.285609 221.764469 
L 501.236688 240.434756 
L 504.528277 277.97083 
L 507.933369 289.994104 
L 511.338462 289.407603 
L 514.875974 302.310628 
L 518.508072 310.326144 
L 522.291508 321.958417 
L 526.169529 329.876183 
L 530.009716 326.552676 
L 533.320222 280.316835 
L 536.706397 288.821102 
L 540.130406 291.558107 
L 543.611167 296.152366 
L 547.073011 295.565865 
L 550.62944 304.363382 
L 554.034532 290.287355 
L 556.853192 220.982467 
L 559.652934 218.929713 
L 562.471594 221.080217 
L 565.30917 225.381226 
L 568.052161 212.4782 
L 570.795152 211.109697 
L 573.613812 222.25322 
L 576.470305 226.945229 
L 579.383551 234.765244 
L 582.296796 233.885493 
L 585.247876 239.066253 
L 588.23679 243.269511 
L 591.225704 245.224515 
L 594.27137 251.871528 
L 597.335953 253.044531 
L 600.457287 259.105043 
L 603.597539 261.646548 
L 606.73779 263.210551 
L 609.953711 270.541815 
L 616.442303 275.136074 
L 619.752809 280.316835 
L 623.063315 281.001086 
L 626.468407 289.798604 
L 629.911333 292.82886 
L 633.467763 304.070132 
L 637.118778 311.694647 
L 640.826545 315.702405 
L 644.704567 330.169434 
L 652.536278 332.808689 
L 656.489968 335.350194 
L 660.462576 336.523196 
L 664.586521 346.004965 
L 668.540211 334.665943 
L 672.56957 340.237704 
L 676.617846 342.094957 
L 680.552619 333.004189 
L 684.525226 337.011947 
L 688.327579 323.22917 
L 692.262352 333.981691 
L 696.083622 325.281924 
L 699.923809 326.552676 
L 703.896417 336.132196 
L 707.812272 331.928937 
L 711.747045 334.177192 
L 715.341309 306.513887 
L 718.95449 309.153142 
L 722.681174 317.364158 
L 726.351107 313.06315 
L 730.039957 314.724903 
L 733.766641 317.168658 
L 737.512242 319.807913 
L 741.314595 324.206672 
L 744.927776 308.566641 
L 748.578791 311.987898 
L 752.210889 309.935144 
L 755.82407 308.07789 
L 759.418334 306.904888 
L 762.974764 302.89713 
L 766.606862 309.837393 
L 770.201126 306.220636 
L 773.795389 306.416137 
L 777.465322 313.845151 
L 781.078503 308.37114 
L 784.672767 307.198138 
L 788.304865 310.130644 
L 791.95588 312.183398 
L 795.682564 317.657409 
L 799.352497 313.942901 
L 803.098098 319.319162 
L 806.862617 321.274166 
L 810.627135 320.198914 
L 814.467322 326.063926 
L 818.231841 320.980915 
L 822.128779 330.560434 
L 826.044635 331.635687 
L 829.960491 332.026687 
L 834.046601 344.343212 
L 838.189463 347.275718 
L 842.521497 359.494492 
L 846.891365 362.035997 
L 851.223399 359.396742 
L 855.858108 376.405275 
L 860.39823 370.931265 
L 865.222111 385.887044 
L 870.008157 384.225291 
L 874.321273 358.907991 
L 878.047957 317.755159 
L 881.509801 295.761365 
L 884.385212 229.291234 
L 887.14712 214.335454 
L 889.909028 213.846703 
L 892.614184 205.244686 
L 895.092335 167.708611 
L 897.419148 137.503801 
L 899.651375 120.299767 
L 901.864685 113.652754 
L 904.096912 118.638014 
L 906.348056 122.743522 
L 908.637034 129.879286 
L 910.94493 134.375795 
L 915.63639 145.226067 
L 918.019955 148.940574 
L 920.441353 156.467339 
L 922.881669 160.279597 
L 925.340902 166.144608 
L 927.856887 175.333126 
L 930.448541 186.574399 
L 935.953439 221.177967 
L 938.942353 243.367261 
L 942.006936 253.826532 
L 945.071519 254.022033 
L 948.230688 264.383553 
L 951.408774 265.947556 
L 954.624694 270.248565 
L 957.878449 274.940574 
L 961.132203 275.038324 
L 964.480544 285.008844 
L 967.866719 287.452599 
L 971.328562 294.490613 
L 974.847157 299.964624 
L 978.38467 301.626377 
L 982.016768 310.326144 
L 985.667783 311.303646 
L 989.394467 317.364158 
L 993.19682 323.32692 
L 996.999173 323.32692 
L 1000.952863 334.470442 
L 1004.906553 335.252444 
L 1009.049415 347.275718 
L 1013.267946 352.651978 
L 1017.467559 351.381226 
L 1021.913096 366.434756 
L 1026.339716 364.870753 
L 1030.955507 375.525524 
L 1035.722636 382.661288 
L 1040.05467 359.005741 
L 1044.197532 347.275718 
L 1047.943133 318.928161 
L 1051.669817 317.364158 
L 1055.320833 311.792397 
L 1058.934014 307.882389 
L 1062.622863 315.604655 
L 1066.292796 312.9654 
L 1070.000563 315.897905 
L 1073.765081 320.492164 
L 1077.5296 320.589915 
L 1081.218449 314.822653 
L 1084.774879 304.167882 
L 1088.444811 313.551901 
L 1092.133661 314.431652 
L 1095.860345 317.755159 
L 1099.719449 328.11668 
L 1103.616388 330.560434 
L 1107.513327 330.755935 
L 1111.240011 318.34166 
L 1115.080198 326.357176 
L 1118.958219 329.876183 
L 1122.741655 321.665167 
L 1126.638594 331.244686 
L 1130.55445 332.417688 
L 1134.583809 339.748953 
L 1138.651002 343.072459 
L 1142.529023 330.071683 
L 1146.615134 343.46346 
L 1150.701244 344.538712 
L 1154.900858 350.892475 
L 1159.024803 346.982467 
L 1163.073079 341.508456 
L 1167.234858 349.132971 
L 1171.358803 346.004965 
L 1175.558416 350.892475 
L 1179.871533 358.41924 
L 1184.127898 355.291234 
L 1188.497766 361.547246 
L 1192.810882 358.028239 
L 1197.369922 371.811016 
L 1202.023548 376.894026 
L 1206.525837 369.074011 
L 1211.236214 380.022033 
L 1216.02226 384.029791 
L 1220.638051 374.743522 
L 1225.083588 366.532506 
L 1229.623711 371.517766 
L 1234.504343 388.135299 
L 1239.101217 374.645772 
L 1243.887263 383.54104 
L 1248.616558 381.195035 
L 1253.15668 371.126765 
L 1257.923809 383.150039 
L 1262.823358 389.210551 
L 1267.968831 400.256323 
L 1273.757487 424.20512 
L 1279.375889 418.437859 
L 1285.164546 424.10737 
L 1289.401993 354.215981 
L 1293.525938 346.102715 
L 1297.725552 351.185725 
L 1302.114337 362.915749 
L 1306.862549 381.586036 
L 1311.837767 392.827308 
L 1322.998902 424.30287 
L 1328.5038 413.94135 
L 1334.841055 440.529403 
L 1340.478374 419.02436 
L 1346.853463 441.702405 
L 1352.377279 414.625601 
L 1357.825426 411.693095 
L 1363.651917 425.280372 
L 1369.8 435.250892 
L 1369.8 435.250892 
" clip-path="url(#p605b25a192)" style="fill: none; stroke: #000000; stroke-width: 2.2; stroke-linecap: square"/>
   </g>
   <g id="LineCollection_2">
    <path d="M 253.8 615.6 
L 1369.8 615.6 
" clip-path="url(#p605b25a192)" style="fill: none; stroke-dasharray: 5.55,2.4; stroke-dashoffset: 0; stroke: #000000; stroke-width: 1.5"/>
   </g>
   <g id="patch_6">
    <path d="M 198 640.8 
L 198 86.4 
" style="fill: none; stroke: #000000; stroke-width: 0.8; stroke-linejoin: miter; stroke-linecap: square"/>
   </g>
   <g id="patch_7">
    <path d="M 1425.6 640.8 
L 1425.6 86.4 
" style="fill: none; stroke: #000000; stroke-width: 0.8; stroke-linejoin: miter; stroke-linecap: square"/>
   </g>
   <g id="patch_8">
    <path d="M 198 640.8 
L 1425.6 640.8 
" style="fill: none; stroke: #000000; stroke-width: 0.8; stroke-linejoin: miter; stroke-linecap: square"/>
   </g>
   <g id="patch_9">
    <path d="M 198 86.4 
L 1425.6 86.4 
" style="fill: none; stroke: #000000; stroke-width: 0.8; stroke-linejoin: miter; stroke-linecap: square"/>
   </g>
   <g id="text_26">
    <g id="patch_10">
     <path d="M 1254.72 208.295625 
L 1409.338125 208.295625 
L 1409.338125 149.40975 
L 1254.72 149.40975 
z
" style="fill: #ffffff; stroke: #000000; stroke-linejoin: miter"/>
    </g>
    <!-- Max Speed: 515.6 RPM -->
    <g transform="translate(1258.2 162.007875) scale(0.12 -0.12)">
     <defs>
      <path id="DejaVuSans-78" d="M 3513 3500 
L 2247 1797 
L 3578 0 
L 2900 0 
L 1881 1375 
L 863 0 
L 184 0 
L 1544 1831 
L 300 3500 
L 978 3500 
L 1906 2253 
L 2834 3500 
L 3513 3500 
z
" transform="scale(0.015625)"/>
      <path id="DejaVuSans-53" d="M 3425 4513 
L 3425 3897 
Q 3066 4069 2747 4153 
Q 2428 4238 2131 4238 
Q 1616 4238 1336 4038 
Q 1056 3838 1056 3469 
Q 1056 3159 1242 3001 
Q 1428 2844 1947 2747 
L 2328 2669 
Q 3034 2534 3370 2195 
Q 3706 1856 3706 1288 
Q 3706 609 3251 259 
Q 2797 -91 1919 -91 
Q 1588 -91 1214 -16 
Q 841 59 441 206 
L 441 856 
Q 825 641 1194 531 
Q 1563 422 1919 422 
Q 2459 422 2753 634 
Q 3047 847 3047 1241 
Q 3047 1584 2836 1778 
Q 2625 1972 2144 2069 
L 1759 2144 
Q 1053 2284 737 2584 
Q 422 2884 422 3419 
Q 422 4038 858 4394 
Q 1294 4750 2059 4750 
Q 2388 4750 2728 4690 
Q 3069 4631 3425 4513 
z
" transform="scale(0.015625)"/>
      <path id="DejaVuSans-3a" d="M 750 794 
L 1409 794 
L 1409 0 
L 750 0 
L 750 794 
z
M 750 3309 
L 1409 3309 
L 1409 2516 
L 750 2516 
L 750 3309 
z
" transform="scale(0.015625)"/>
      <path id="DejaVuSans-2e" d="M 684 794 
L 1344 794 
L 1344 0 
L 684 0 
L 684 794 
z
" transform="scale(0.015625)"/>
     </defs>
     <use xlink:href="#DejaVuSans-4d"/>
     <use xlink:href="#DejaVuSans-61" transform="translate(86.279297 0)"/>
     <use xlink:href="#DejaVuSans-78" transform="translate(147.558594 0)"/>
     <use xlink:href="#DejaVuSans-20" transform="translate(206.738281 0)"/>
     <use xlink:href="#DejaVuSans-53" transform="translate(238.525391 0)"/>
     <use xlink:href="#DejaVuSans-70" transform="translate(302.001953 0)"/>
     <use xlink:href="#DejaVuSans-65" transform="translate(365.478516 0)"/>
     <use xlink:href="#DejaVuSans-65" transform="translate(427.001953 0)"/>
     <use xlink:href="#DejaVuSans-64" transform="translate(488.525391 0)"/>
     <use xlink:href="#DejaVuSans-3a" transform="translate(552.001953 0)"/>
     <use xlink:href="#DejaVuSans-20" transform="translate(585.693359 0)"/>
     <use xlink:href="#DejaVuSans-35" transform="translate(617.480469 0)"/>
     <use xlink:href="#DejaVuSans-31" transform="translate(681.103516 0)"/>
     <use xlink:href="#DejaVuSans-35" transform="translate(744.726562 0)"/>
     <use xlink:href="#DejaVuSans-2e" transform="translate(808.349609 0)"/>
     <use xlink:href="#DejaVuSans-36" transform="translate(840.136719 0)"/>
     <use xlink:href="#DejaVuSans-20" transform="translate(903.759766 0)"/>
     <use xlink:href="#DejaVuSans-52" transform="translate(935.546875 0)"/>
     <use xlink:href="#DejaVuSans-50" transform="translate(1005.029297 0)"/>
     <use xlink:href="#DejaVuSans-4d" transform="translate(1065.332031 0)"/>
    </g>
    <!-- Max Accl.: 1077.6 RPM/s -->
    <g transform="translate(1258.2 175.44525) scale(0.12 -0.12)">
     <defs>
      <path id="DejaVuSans-37" d="M 525 4666 
L 3525 4666 
L 3525 4397 
L 1831 0 
L 1172 0 
L 2766 4134 
L 525 4134 
L 525 4666 
z
" transform="scale(0.015625)"/>
     </defs>
     <use xlink:href="#DejaVuSans-4d"/>
     <use xlink:href="#DejaVuSans-61" transform="translate(86.279297 0)"/>
     <use xlink:href="#DejaVuSans-78" transform="translate(147.558594 0)"/>
     <use xlink:href="#DejaVuSans-20" transform="translate(206.738281 0)"/>
     <use xlink:href="#DejaVuSans-41" transform="translate(238.525391 0)"/>
     <use xlink:href="#DejaVuSans-63" transform="translate(305.183594 0)"/>
     <use xlink:href="#DejaVuSans-63" transform="translate(360.164062 0)"/>
     <use xlink:href="#DejaVuSans-6c" transform="translate(415.144531 0)"/>
     <use xlink:href="#DejaVuSans-2e" transform="translate(442.927734 0)"/>
     <use xlink:href="#DejaVuSans-3a" transform="translate(474.714844 0)"/>
     <use xlink:href="#DejaVuSans-20" transform="translate(508.40625 0)"/>
     <use xlink:href="#DejaVuSans-31" transform="translate(540.193359 0)"/>
     <use xlink:href="#DejaVuSans-30" transform="translate(603.816406 0)"/>
     <use xlink:href="#DejaVuSans-37" transform="translate(667.439453 0)"/>
     <use xlink:href="#DejaVuSans-37" transform="translate(731.0625 0)"/>
     <use xlink:href="#DejaVuSans-2e" transform="translate(794.685547 0)"/>
     <use xlink:href="#DejaVuSans-36" transform="translate(826.472656 0)"/>
     <use xlink:href="#DejaVuSans-20" transform="translate(890.095703 0)"/>
     <use xlink:href="#DejaVuSans-52" transform="translate(921.882812 0)"/>
     <use xlink:href="#DejaVuSans-50" transform="translate(991.365234 0)"/>
     <use xlink:href="#DejaVuSans-4d" transform="translate(1051.667969 0)"/>
     <use xlink:href="#DejaVuSans-2f" transform="translate(1137.947266 0)"/>
     <use xlink:href="#DejaVuSans-73" transform="translate(1171.638672 0)"/>
    </g>
    <!-- Min Accl.: -539.26 RPM/s -->
    <g transform="translate(1258.2 188.882625) scale(0.12 -0.12)">
     <defs>
      <path id="DejaVuSans-2d" d="M 313 2009 
L 1997 2009 
L 1997 1497 
L 313 1497 
L 313 2009 
z
" transform="scale(0.015625)"/>
      <path id="DejaVuSans-39" d="M 703 97 
L 703 672 
Q 941 559 1184 500 
Q 1428 441 1663 441 
Q 2288 441 2617 861 
Q 2947 1281 2994 2138 
Q 2813 1869 2534 1725 
Q 2256 1581 1919 1581 
Q 1219 1581 811 2004 
Q 403 2428 403 3163 
Q 403 3881 828 4315 
Q 1253 4750 1959 4750 
Q 2769 4750 3195 4129 
Q 3622 3509 3622 2328 
Q 3622 1225 3098 567 
Q 2575 -91 1691 -91 
Q 1453 -91 1209 -44 
Q 966 3 703 97 
z
M 1959 2075 
Q 2384 2075 2632 2365 
Q 2881 2656 2881 3163 
Q 2881 3666 2632 3958 
Q 2384 4250 1959 4250 
Q 1534 4250 1286 3958 
Q 1038 3666 1038 3163 
Q 1038 2656 1286 2365 
Q 1534 2075 1959 2075 
z
" transform="scale(0.015625)"/>
     </defs>
     <use xlink:href="#DejaVuSans-4d"/>
     <use xlink:href="#DejaVuSans-69" transform="translate(86.279297 0)"/>
     <use xlink:href="#DejaVuSans-6e" transform="translate(114.0625 0)"/>
     <use xlink:href="#DejaVuSans-20" transform="translate(177.441406 0)"/>
     <use xlink:href="#DejaVuSans-41" transform="translate(209.228516 0)"/>
     <use xlink:href="#DejaVuSans-63" transform="translate(275.886719 0)"/>
     <use xlink:href="#DejaVuSans-63" transform="translate(330.867188 0)"/>
     <use xlink:href="#DejaVuSans-6c" transform="translate(385.847656 0)"/>
     <use xlink:href="#DejaVuSans-2e" transform="translate(413.630859 0)"/>
     <use xlink:href="#DejaVuSans-3a" transform="translate(445.417969 0)"/>
     <use xlink:href="#DejaVuSans-20" transform="translate(479.109375 0)"/>
     <use xlink:href="#DejaVuSans-2d" transform="translate(510.896484 0)"/>
     <use xlink:href="#DejaVuSans-35" transform="translate(546.980469 0)"/>
     <use xlink:href="#DejaVuSans-33" transform="translate(610.603516 0)"/>
     <use xlink:href="#DejaVuSans-39" transform="translate(674.226562 0)"/>
     <use xlink:href="#DejaVuSans-2e" transform="translate(737.849609 0)"/>
     <use xlink:href="#DejaVuSans-32" transform="translate(769.636719 0)"/>
     <use xlink:href="#DejaVuSans-36" transform="translate(833.259766 0)"/>
     <use xlink:href="#DejaVuSans-20" transform="translate(896.882812 0)"/>
     <use xlink:href="#DejaVuSans-52" transform="translate(928.669922 0)"/>
     <use xlink:href="#DejaVuSans-50" transform="translate(998.152344 0)"/>
     <use xlink:href="#DejaVuSans-4d" transform="translate(1058.455078 0)"/>
     <use xlink:href="#DejaVuSans-2f" transform="translate(1144.734375 0)"/>
     <use xlink:href="#DejaVuSans-73" transform="translate(1178.425781 0)"/>
    </g>
    <!-- Runtime: 59.0 s -->
    <g transform="translate(1258.2 202.32) scale(0.12 -0.12)">
     <defs>
      <path id="DejaVuSans-75" d="M 544 1381 
L 544 3500 
L 1119 3500 
L 1119 1403 
Q 1119 906 1312 657 
Q 1506 409 1894 409 
Q 2359 409 2629 706 
Q 2900 1003 2900 1516 
L 2900 3500 
L 3475 3500 
L 3475 0 
L 2900 0 
L 2900 538 
Q 2691 219 2414 64 
Q 2138 -91 1772 -91 
Q 1169 -91 856 284 
Q 544 659 544 1381 
z
M 1991 3584 
L 1991 3584 
z
" transform="scale(0.015625)"/>
     </defs>
     <use xlink:href="#DejaVuSans-52"/>
     <use xlink:href="#DejaVuSans-75" transform="translate(64.982422 0)"/>
     <use xlink:href="#DejaVuSans-6e" transform="translate(128.361328 0)"/>
     <use xlink:href="#DejaVuSans-74" transform="translate(191.740234 0)"/>
     <use xlink:href="#DejaVuSans-69" transform="translate(230.949219 0)"/>
     <use xlink:href="#DejaVuSans-6d" transform="translate(258.732422 0)"/>
     <use xlink:href="#DejaVuSans-65" transform="translate(356.144531 0)"/>
     <use xlink:href="#DejaVuSans-3a" transform="translate(417.667969 0)"/>
     <use xlink:href="#DejaVuSans-20" transform="translate(451.359375 0)"/>
     <use xlink:href="#DejaVuSans-35" transform="translate(483.146484 0)"/>
     <use xlink:href="#DejaVuSans-39" transform="translate(546.769531 0)"/>
     <use xlink:href="#DejaVuSans-2e" transform="translate(610.392578 0)"/>
     <use xlink:href="#DejaVuSans-30" transform="translate(642.179688 0)"/>
     <use xlink:href="#DejaVuSans-20" transform="translate(705.802734 0)"/>
     <use xlink:href="#DejaVuSans-73" transform="translate(737.589844 0)"/>
    </g>
   </g>
   <g id="text_27">
    <!-- Analysis of: nearly-1-minute-run -->
    <g transform="translate(586.830938 80.4) scale(0.28 -0.28)">
     <defs>
      <path id="DejaVuSans-79" d="M 2059 -325 
Q 1816 -950 1584 -1140 
Q 1353 -1331 966 -1331 
L 506 -1331 
L 506 -850 
L 844 -850 
Q 1081 -850 1212 -737 
Q 1344 -625 1503 -206 
L 1606 56 
L 191 3500 
L 800 3500 
L 1894 763 
L 2988 3500 
L 3597 3500 
L 2059 -325 
z
" transform="scale(0.015625)"/>
      <path id="DejaVuSans-66" d="M 2375 4863 
L 2375 4384 
L 1825 4384 
Q 1516 4384 1395 4259 
Q 1275 4134 1275 3809 
L 1275 3500 
L 2222 3500 
L 2222 3053 
L 1275 3053 
L 1275 0 
L 697 0 
L 697 3053 
L 147 3053 
L 147 3500 
L 697 3500 
L 697 3744 
Q 697 4328 969 4595 
Q 1241 4863 1831 4863 
L 2375 4863 
z
" transform="scale(0.015625)"/>
     </defs>
     <use xlink:href="#DejaVuSans-41"/>
     <use xlink:href="#DejaVuSans-6e" transform="translate(68.408203 0)"/>
     <use xlink:href="#DejaVuSans-61" transform="translate(131.787109 0)"/>
     <use xlink:href="#DejaVuSans-6c" transform="translate(193.066406 0)"/>
     <use xlink:href="#DejaVuSans-79" transform="translate(220.849609 0)"/>
     <use xlink:href="#DejaVuSans-73" transform="translate(280.029297 0)"/>
     <use xlink:href="#DejaVuSans-69" transform="translate(332.128906 0)"/>
     <use xlink:href="#DejaVuSans-73" transform="translate(359.912109 0)"/>
     <use xlink:href="#DejaVuSans-20" transform="translate(412.011719 0)"/>
     <use xlink:href="#DejaVuSans-6f" transform="translate(443.798828 0)"/>
     <use xlink:href="#DejaVuSans-66" transform="translate(504.980469 0)"/>
     <use xlink:href="#DejaVuSans-3a" transform="translate(536.560547 0)"/>
     <use xlink:href="#DejaVuSans-20" transform="translate(570.251953 0)"/>
     <use xlink:href="#DejaVuSans-6e" transform="translate(602.039062 0)"/>
     <use xlink:href="#DejaVuSans-65" transform="translate(665.417969 0)"/>
     <use xlink:href="#DejaVuSans-61" transform="translate(726.941406 0)"/>
     <use xlink:href="#DejaVuSans-72" transform="translate(788.220703 0)"/>
     <use xlink:href="#DejaVuSans-6c" transform="translate(829.333984 0)"/>
     <use xlink:href="#DejaVuSans-79" transform="translate(857.117188 0)"/>
     <use xlink:href="#DejaVuSans-2d" transform="translate(914.546875 0)"/>
     <use xlink:href="#DejaVuSans-31" transform="translate(950.630859 0)"/>
     <use xlink:href="#DejaVuSans-2d" transform="translate(1014.253906 0)"/>
     <use xlink:href="#DejaVuSans-6d" transform="translate(1050.337891 0)"/>
     <use xlink:href="#DejaVuSans-69" transform="translate(1147.75 0)"/>
     <use xlink:href="#DejaVuSans-6e" transform="translate(1175.533203 0)"/>
     <use xlink:href="#DejaVuSans-75" transform="translate(1238.912109 0)"/>
     <use xlink:href="#DejaVuSans-74" transform="translate(1302.291016 0)"/>
     <use xlink:href="#DejaVuSans-65" transform="translate(1341.5 0)"/>
     <use xlink:href="#DejaVuSans-2d" transform="translate(1403.023438 0)"/>
     <use xlink:href="#DejaVuSans-72" transform="translate(1439.107422 0)"/>
     <use xlink:href="#DejaVuSans-75" transform="translate(1480.220703 0)"/>
     <use xlink:href="#DejaVuSans-6e" transform="translate(1543.599609 0)"/>
    </g>
   </g>
   <g id="legend_1">
    <g id="patch_11">
     <path d="M 1224.774375 131.2275 
L 1419.6 131.2275 
L 1419.6 92.4 
L 1224.774375 92.4 
z
" style="fill: #ffffff; opacity: 0.8; stroke: #000000; stroke-linejoin: miter"/>
    </g>
    <g id="line2d_38">
     <path d="M 1229.574375 102.118125 
L 1241.574375 102.118125 
L 1253.574375 102.118125 
" style="fill: none; stroke: #000000; stroke-width: 2.2; stroke-linecap: square"/>
    </g>
    <g id="text_28">
     <!-- Rotational speed [RPM] -->
     <g transform="translate(1263.174375 106.318125) scale(0.12 -0.12)">
      <use xlink:href="#DejaVuSans-52"/>
      <use xlink:href="#DejaVuSans-6f" transform="translate(64.982422 0)"/>
      <use xlink:href="#DejaVuSans-74" transform="translate(126.164062 0)"/>
      <use xlink:href="#DejaVuSans-61" transform="translate(165.373047 0)"/>
      <use xlink:href="#DejaVuSans-74" transform="translate(226.652344 0)"/>
      <use xlink:href="#DejaVuSans-69" transform="translate(265.861328 0)"/>
      <use xlink:href="#DejaVuSans-6f" transform="translate(293.644531 0)"/>
      <use xlink:href="#DejaVuSans-6e" transform="translate(354.826172 0)"/>
      <use xlink:href="#DejaVuSans-61" transform="translate(418.205078 0)"/>
      <use xlink:href="#DejaVuSans-6c" transform="translate(479.484375 0)"/>
      <use xlink:href="#DejaVuSans-20" transform="translate(507.267578 0)"/>
      <use xlink:href="#DejaVuSans-73" transform="translate(539.054688 0)"/>
      <use xlink:href="#DejaVuSans-70" transform="translate(591.154297 0)"/>
      <use xlink:href="#DejaVuSans-65" transform="translate(654.630859 0)"/>
      <use xlink:href="#DejaVuSans-65" transform="translate(716.154297 0)"/>
      <use xlink:href="#DejaVuSans-64" transform="translate(777.677734 0)"/>
      <use xlink:href="#DejaVuSans-20" transform="translate(841.154297 0)"/>
      <use xlink:href="#DejaVuSans-5b" transform="translate(872.941406 0)"/>
      <use xlink:href="#DejaVuSans-52" transform="translate(911.955078 0)"/>
      <use xlink:href="#DejaVuSans-50" transform="translate(981.4375 0)"/>
      <use xlink:href="#DejaVuSans-4d" transform="translate(1041.740234 0)"/>
      <use xlink:href="#DejaVuSans-5d" transform="translate(1128.019531 0)"/>
     </g>
    </g>
    <g id="line2d_39">
     <path d="M 1229.574375 119.731875 
L 1241.574375 119.731875 
L 1253.574375 119.731875 
" style="fill: none; stroke: #ffa500; stroke-width: 1.2; stroke-linecap: square"/>
    </g>
    <g id="text_29">
     <!-- Acceleration [log(RPM/s)] -->
     <g transform="translate(1263.174375 123.931875) scale(0.12 -0.12)">
      <use xlink:href="#DejaVuSans-41"/>
      <use xlink:href="#DejaVuSans-63" transform="translate(66.658203 0)"/>
      <use xlink:href="#DejaVuSans-63" transform="translate(121.638672 0)"/>
      <use xlink:href="#DejaVuSans-65" transform="translate(176.619141 0)"/>
      <use xlink:href="#DejaVuSans-6c" transform="translate(238.142578 0)"/>
      <use xlink:href="#DejaVuSans-65" transform="translate(265.925781 0)"/>
      <use xlink:href="#DejaVuSans-72" transform="translate(327.449219 0)"/>
      <use xlink:href="#DejaVuSans-61" transform="translate(368.5625 0)"/>
      <use xlink:href="#DejaVuSans-74" transform="translate(429.841797 0)"/>
      <use xlink:href="#DejaVuSans-69" transform="translate(469.050781 0)"/>
      <use xlink:href="#DejaVuSans-6f" transform="translate(496.833984 0)"/>
      <use xlink:href="#DejaVuSans-6e" transform="translate(558.015625 0)"/>
      <use xlink:href="#DejaVuSans-20" transform="translate(621.394531 0)"/>
      <use xlink:href="#DejaVuSans-5b" transform="translate(653.181641 0)"/>
      <use xlink:href="#DejaVuSans-6c" transform="translate(692.195312 0)"/>
      <use xlink:href="#DejaVuSans-6f" transform="translate(719.978516 0)"/>
      <use xlink:href="#DejaVuSans-67" transform="translate(781.160156 0)"/>
      <use xlink:href="#DejaVuSans-28" transform="translate(844.636719 0)"/>
      <use xlink:href="#DejaVuSans-52" transform="translate(883.650391 0)"/>
      <use xlink:href="#DejaVuSans-50" transform="translate(953.132812 0)"/>
      <use xlink:href="#DejaVuSans-4d" transform="translate(1013.435547 0)"/>
      <use xlink:href="#DejaVuSans-2f" transform="translate(1099.714844 0)"/>
      <use xlink:href="#DejaVuSans-73" transform="translate(1133.40625 0)"/>
      <use xlink:href="#DejaVuSans-29" transform="translate(1185.505859 0)"/>
      <use xlink:href="#DejaVuSans-5d" transform="translate(1224.519531 0)"/>
     </g>
    </g>
   </g>
  </g>
 </g>
 <defs>
  <clipPath id="p605b25a192">
   <rect x="198" y="86.4" width="1227.6" height="554.4"/>
  </clipPath>
 </defs>
</svg>
